<?xml version="1.0" encoding="utf-8"?>
<!-- Generator: Adobe Illustrator 16.0.0, SVG Export Plug-In . SVG Version: 6.00 Build 0)  -->
<!DOCTYPE svg PUBLIC "-//W3C//DTD SVG 1.1//EN" "http://www.w3.org/Graphics/SVG/1.1/DTD/svg11.dtd">
<svg version="1.1" id="圖層_1" xmlns="http://www.w3.org/2000/svg" xmlns:xlink="http://www.w3.org/1999/xlink" x="0px" y="0px"
	 width="24px" height="24px" viewBox="0 0 24 24" enable-background="new 0 0 24 24" xml:space="preserve">
<path display="none" fill="#FFFFFF" d="M12,0C7.6,0,3,3.4,3,9c0,5.3,8,13.4,8.3,13.7c0.2,0.2,0.4,0.3,0.7,0.3s0.5-0.1,0.7-0.3
	C13,22.4,21,14.3,21,9C21,3.4,16.4,0,12,0z M12,12c-1.7,0-3-1.3-3-3s1.3-3,3-3s3,1.3,3,3S13.7,12,12,12z"/>
<path fill="#FFFFFF" d="M22.354,6.124H1.646c-0.725,0-1.312,0.615-1.312,1.372V22.2c0,0.759,0.587,1.373,1.312,1.373h20.708
	c0.727,0,1.313-0.614,1.313-1.373V7.496C23.666,6.738,23.08,6.124,22.354,6.124z M23.334,14.79H14.28
	c-0.073,0.604-0.272,1.04-0.508,1.04h-3.546c-0.236,0-0.434-0.437-0.507-1.04H0.667v-1H9.72c0.073-0.604,0.271-1.04,0.507-1.04
	h3.546c0.235,0,0.435,0.437,0.508,1.04h9.054V14.79z"/>
<g>
	<path fill="#FFFFFF" d="M13.86,0.32h-3.72c-3.44,0-6.341,2.47-7.11,5.8H6.3c0.65-1.58,2.12-2.68,3.841-2.68h3.72
		c1.72,0,3.189,1.1,3.84,2.68h3.27C20.2,2.79,17.3,0.32,13.86,0.32z"/>
</g>
</svg>
