<?xml version="1.0" encoding="utf-8"?>
<!-- Generator: Adobe Illustrator 16.0.0, SVG Export Plug-In . SVG Version: 6.00 Build 0)  -->
<!DOCTYPE svg PUBLIC "-//W3C//DTD SVG 1.1//EN" "http://www.w3.org/Graphics/SVG/1.1/DTD/svg11.dtd">
<svg version="1.1" id="圖層_1" xmlns="http://www.w3.org/2000/svg" xmlns:xlink="http://www.w3.org/1999/xlink" x="0px" y="0px"
	 width="24px" height="24px" viewBox="0 0 24 24" enable-background="new 0 0 24 24" xml:space="preserve">
<g>
	<path fill-rule="evenodd" clip-rule="evenodd" fill="#FFFFFF" d="M23.813,22.035V1.02c0-0.63-0.965-0.788-0.965-0.788H3.019
		c-2.893,0-2.894,2.521-2.894,2.521v20.174c0,0.463,0.458,0.843,1.029,0.843h18.542c0.567,0,1.028-0.38,1.028-0.843h2.059
		C23.893,22.927,23.813,22.035,23.813,22.035z M4.24,22.331H2.462V3.953H4.24V22.331z M21.785,21.618c0,0-0.18,0.548-1.062,0.548
		V3.629c0-0.464-0.461-0.839-1.028-0.839h-0.546c0.071,0.016,0.132,0.065,0.132,0.129v9.609c0,0.059-0.042,0.109-0.107,0.133
		c-0.069,0.023-0.146,0.012-0.195-0.032l-2.855-2.328l-2.855,2.328c-0.036,0.028-0.077,0.044-0.127,0.044
		c-0.021,0-0.045-0.002-0.068-0.012c-0.065-0.023-0.109-0.074-0.109-0.133V2.919c0-0.068,0.064-0.116,0.139-0.132L2.149,2.783
		c0-0.577,1.064-0.87,1.064-0.87h17.511c1.094,0,1.062,0.788,1.062,0.788V21.618z"/>
</g>
</svg>
