<?xml version="1.0" encoding="utf-8"?>
<!-- Generator: Adobe Illustrator 16.0.0, SVG Export Plug-In . SVG Version: 6.00 Build 0)  -->
<!DOCTYPE svg PUBLIC "-//W3C//DTD SVG 1.1//EN" "http://www.w3.org/Graphics/SVG/1.1/DTD/svg11.dtd">
<svg version="1.1" id="圖層_1" xmlns="http://www.w3.org/2000/svg" xmlns:xlink="http://www.w3.org/1999/xlink" x="0px" y="0px"
	 width="24px" height="24px" viewBox="0 0 24 24" enable-background="new 0 0 24 24" xml:space="preserve">
<g>
	<path fill="#FFFFFF" d="M7.019,19.672l4.074-0.02l0.001-10.328c-0.746-0.22-1.272-0.744-1.272-1.358
		c0-0.812,0.916-1.472,2.047-1.472c1.13,0,2.046,0.66,2.046,1.472c0.001,0.592-0.492,1.093-1.191,1.327v10.352l4.192-0.02
		l3.424-8.139L11.957,0.5l0.001,0.024L3.741,11.436L7.019,19.672z"/>
	<path fill="#FFFFFF" d="M16.477,20.924H7.403c0,0-2.085,3.238-2.083,4.855c-0.002,1.619,0,11.549,0,11.549h6.55h1.956V24.813h2.661
		l0.001,12.516h1.931c0,0,0.002-10.004,0-11.549C18.42,24.234,16.477,20.924,16.477,20.924z"/>
</g>
</svg>
