<?xml version="1.0" encoding="utf-8"?>
<!-- Generator: Adobe Illustrator 16.0.0, SVG Export Plug-In . SVG Version: 6.00 Build 0)  -->
<!DOCTYPE svg PUBLIC "-//W3C//DTD SVG 1.1//EN" "http://www.w3.org/Graphics/SVG/1.1/DTD/svg11.dtd">
<svg version="1.1" id="圖層_1" xmlns="http://www.w3.org/2000/svg" xmlns:xlink="http://www.w3.org/1999/xlink" x="0px" y="0px"
	 width="228px" height="219px" viewBox="0 0 228 219" enable-background="new 0 0 228 219" xml:space="preserve">
<path fill="#77C4A1" d="M154.46,75.935h-3.013c-5.522,0-10,4.477-10,10v13.348h-8.101V85.935c0-5.523-4.478-10-10-10h-3.013
	c-5.523,0-10,4.477-10,10v33.954c0,5.522,4.477,10,10,10h3.013c5.522,0,10-4.478,10-10v-11.646h8.101v11.646c0,5.522,4.478,10,10,10
	h3.013c5.522,0,10-4.478,10-10V85.935C164.46,80.411,159.982,75.935,154.46,75.935z"/>
<path fill="#32B6A0" d="M192.139,108.243h26.551c2.619,0,4.742-2.006,4.742-4.48s-2.123-4.48-4.742-4.48h-26.551V85.935
	c0-0.351-0.02-0.697-0.055-1.039h26.605c2.619,0,4.742-2.006,4.742-4.48s-2.123-4.48-4.742-4.48h-36.551h-2.889h-0.123
	c-5.524,0-10,4.477-10,10v33.954c0,5.522,4.477,10,10,10h0.123h2.889h36.551c2.619,0,4.742-2.006,4.742-4.48s-2.123-4.48-4.742-4.48
	h-26.605c0.035-0.342,0.055-0.688,0.055-1.039V108.243z"/>
<path fill="#32B6A0" d="M137.397,132.392c-1.006,0-1.998,0.06-2.976,0.166c-0.301-0.051-0.652-0.08-1.075-0.08h-13.013
	c-5.523,0-10,4.478-10,10v34.041c0,5.522,4.477,10,10,10h13.013c0.557,0,0.996-0.048,1.345-0.135
	c0.89,0.088,1.792,0.135,2.706,0.135c14.946,0,27.063-12.117,27.063-27.063S152.344,132.392,137.397,132.392z M148.669,160.722
	c0,5.531-4.479,10-10,10h-2.54c-0.97,0-1.9-0.14-2.779-0.399v-21.74c0.879-0.26,1.81-0.399,2.779-0.399h2.54c5.521,0,10,4.479,10,10
	V160.722z"/>
<path fill="#77C4A1" d="M223.098,154.866c0-9.058-6.389-18.954-15.576-22.479v17.067c0,5.522-4.479,4.019-10,4.019h-3.014
	c-5.521,0-10,1.504-10-4.019v-16.75c-9.049,3.662-15.577,13.368-15.577,22.161c0,9.462,7.56,17.547,17.688,20.823
	c-0.063,0.436-0.104,0.877-0.104,1.329c0,5.246,4.252,9.5,9.5,9.5c5.246,0,9.5-4.254,9.5-9.5c0-0.361-0.025-0.716-0.064-1.066
	C215.736,172.86,223.098,164.589,223.098,154.866z"/>
<g>
	<g>
		<path fill="#36AD99" d="M83.607,126.516c0,0-0.002,0.154-0.005,0.453c-0.005,0.299-0.013,0.743,0.009,1.321
			c0.026,1.157,0.058,2.855,0.2,5.016c0.199,2.144,0.335,4.813,0.049,7.902c-0.33,3.061-0.97,6.54-2.367,10.148
			c-0.682,1.808-1.513,3.66-2.55,5.498c-0.996,1.867-2.224,3.697-3.614,5.518c-2.811,3.598-6.435,7.087-10.991,9.743
			c-4.535,2.678-9.978,4.417-15.751,4.753c-5.703,0.342-11.786-0.629-17.354-2.981c-5.59-2.332-10.643-5.996-14.727-10.5
			c-4.067-4.499-7.217-9.827-9.017-15.448c-0.921-2.802-1.501-5.666-1.821-8.489c-0.075-0.706-0.158-1.41-0.192-2.111
			c-0.042-0.666-0.084-1.328-0.125-1.986c-0.06-1.088-0.118-2.164-0.176-3.225c-0.212-4.244-0.413-8.256-0.598-11.96
			c-0.25-7.407-0.458-13.58-0.604-17.9c-0.104-4.321-0.163-6.791-0.163-6.791c-0.156-6.555,5.03-11.995,11.584-12.152
			c6.555-0.156,11.995,5.03,12.152,11.584c0.004,0.176,0.003,0.394,0,0.567c0,0-0.059,2.469-0.163,6.791
			c-0.146,4.32-0.354,10.493-0.604,17.9c-0.185,3.704-0.386,7.716-0.598,11.96c-0.058,1.061-0.117,2.137-0.176,3.225
			c-0.021,0.431-0.043,0.863-0.065,1.299c-0.031,0.402-0.006,0.802-0.005,1.206c0.029,1.618,0.21,3.262,0.504,4.927
			c0.619,3.312,1.751,6.748,3.687,9.903c1.908,3.151,4.614,5.954,7.805,8.145c3.205,2.197,6.957,3.647,10.967,4.213
			c3.949,0.583,8.097,0.35,12.04-0.693c3.939-1.055,7.669-2.965,10.725-5.49c1.55-1.242,2.882-2.671,4.097-4.127
			c1.173-1.488,2.193-3.032,3.051-4.593c1.667-3.145,2.733-6.305,3.303-9.188c0.587-2.875,0.624-5.476,0.822-7.647
			c0.142-2.16,0.173-3.858,0.2-5.016c0.021-0.578,0.014-1.022,0.009-1.321c-0.003-0.299-0.005-0.453-0.005-0.453
			c-0.001-0.13,0.103-0.236,0.232-0.238s0.237,0.103,0.238,0.232C83.607,126.512,83.607,126.514,83.607,126.516z"/>
	</g>
	<g>
		<path fill="#75BD9C" d="M25.353,133.127c0,0,0.002-0.154,0.005-0.453c0.005-0.299,0.013-0.743-0.009-1.321
			c-0.026-1.157-0.058-2.855-0.2-5.016c-0.199-2.144-0.335-4.813-0.049-7.902c0.33-3.061,0.97-6.54,2.367-10.148
			c0.681-1.808,1.513-3.66,2.55-5.498c0.995-1.867,2.224-3.697,3.614-5.518c2.811-3.598,6.435-7.087,10.991-9.744
			c4.535-2.678,9.977-4.417,15.751-4.753c5.703-0.342,11.785,0.628,17.354,2.981c5.59,2.332,10.643,5.998,14.727,10.5
			c4.067,4.5,7.217,9.827,9.017,15.448c0.921,2.802,1.5,5.666,1.821,8.489c0.075,0.707,0.159,1.411,0.193,2.111
			c0.042,0.666,0.084,1.328,0.125,1.986c0.06,1.089,0.118,2.164,0.176,3.226c0.212,4.243,0.413,8.256,0.598,11.959
			c0.25,7.407,0.458,13.58,0.604,17.901c0.104,4.321,0.163,6.79,0.163,6.79c0.156,6.555-5.03,11.995-11.584,12.151
			c-6.555,0.157-11.995-5.029-12.152-11.584c-0.004-0.176-0.003-0.394,0-0.567c0,0,0.059-2.469,0.163-6.79
			c0.146-4.321,0.354-10.494,0.604-17.901c0.185-3.703,0.386-7.716,0.598-11.959c0.058-1.062,0.117-2.137,0.176-3.226
			c0.021-0.431,0.043-0.863,0.065-1.299c0.031-0.401,0.006-0.801,0.005-1.206c-0.029-1.617-0.21-3.261-0.505-4.926
			c-0.619-3.312-1.751-6.748-3.687-9.903c-1.908-3.152-4.613-5.954-7.805-8.146c-3.205-2.197-6.957-3.647-10.967-4.212
			c-3.948-0.583-8.097-0.349-12.04,0.694c-3.939,1.054-7.668,2.965-10.724,5.49c-1.55,1.242-2.883,2.67-4.098,4.127
			c-1.172,1.488-2.193,3.032-3.05,4.593c-1.667,3.145-2.733,6.305-3.303,9.188c-0.587,2.875-0.624,5.476-0.822,7.647
			c-0.142,2.16-0.173,3.858-0.2,5.016c-0.021,0.578-0.014,1.022-0.009,1.321c0.003,0.299,0.005,0.453,0.005,0.453
			c0.001,0.13-0.103,0.236-0.232,0.238s-0.237-0.103-0.238-0.232C25.353,133.131,25.353,133.129,25.353,133.127z"/>
	</g>
</g>
<g id="XMLID_2_">
	<g>
		<path fill="#77C4A1" d="M60.54,131.37c0,3.02-2.71,5.47-6.06,5.47v-10.94C57.83,125.899,60.54,128.35,60.54,131.37z"/>
		<path fill="#32B6A0" d="M54.479,125.899v10.94c-3.34,0-6.05-2.45-6.05-5.47S51.14,125.899,54.479,125.899z"/>
	</g>
</g>
</svg>
