<?xml version="1.0" encoding="utf-8"?>
<!-- Generator: Adobe Illustrator 16.0.0, SVG Export Plug-In . SVG Version: 6.00 Build 0)  -->
<!DOCTYPE svg PUBLIC "-//W3C//DTD SVG 1.1//EN" "http://www.w3.org/Graphics/SVG/1.1/DTD/svg11.dtd">
<svg version="1.1" id="圖層_1" xmlns="http://www.w3.org/2000/svg" xmlns:xlink="http://www.w3.org/1999/xlink" x="0px" y="0px"
	 width="200.666px" height="200.667px" viewBox="0 -15.667 200.666 200.667" enable-background="new 0 -15.667 200.666 200.667"
	 xml:space="preserve">
<path fill="#77C4A1" d="M142.315,69.526h-2.38c-4.365,0-7.904,3.538-7.904,7.904v10.55h-6.402v-10.55
	c0-4.366-3.54-7.904-7.905-7.904h-2.382c-4.366,0-7.905,3.538-7.905,7.904v26.839c0,4.363,3.539,7.904,7.905,7.904h2.382
	c4.365,0,7.905-3.541,7.905-7.904v-9.205h6.402v9.205c0,4.363,3.539,7.904,7.904,7.904h2.38c4.366,0,7.906-3.541,7.906-7.904V77.431
	C150.222,73.064,146.682,69.526,142.315,69.526z"/>
<path fill="#32B6A0" d="M172.098,95.063h20.986c2.072,0,3.749-1.585,3.749-3.542s-1.677-3.542-3.749-3.542h-20.986V77.43
	c0-0.278-0.014-0.552-0.042-0.823h21.028c2.072,0,3.749-1.584,3.749-3.542c0-1.957-1.677-3.541-3.749-3.541h-28.891h-2.282h-0.098
	c-4.366,0-7.904,3.539-7.904,7.904v26.838c0,4.364,3.538,7.906,7.904,7.906h0.098h2.282h28.891c2.072,0,3.749-1.587,3.749-3.543
	c0-1.958-1.677-3.542-3.749-3.542h-21.028c0.028-0.271,0.042-0.545,0.042-0.822V95.063z"/>
<path fill="#32B6A0" d="M128.831,114.151c-0.795,0-1.581,0.047-2.352,0.131c-0.239-0.04-0.516-0.063-0.85-0.063h-10.286
	c-4.366,0-7.904,3.54-7.904,7.904v26.906c0,4.366,3.538,7.905,7.904,7.905h10.286c0.438,0,0.787-0.037,1.063-0.106
	c0.703,0.069,1.417,0.106,2.139,0.106c11.813,0,21.391-9.578,21.391-21.391C150.222,123.729,140.645,114.151,128.831,114.151z
	 M137.74,136.544c0,4.37-3.542,7.904-7.903,7.904h-2.01c-0.765,0-1.501-0.11-2.196-0.315v-17.185
	c0.694-0.203,1.432-0.315,2.196-0.315h2.01c4.361,0,7.903,3.542,7.903,7.906V136.544z"/>
<path fill="#77C4A1" d="M196.571,131.913c0-0.48-0.026-0.961-0.069-1.451c-0.402-4.342-2.551-8.779-5.846-12.083
	c-1.817-1.825-3.984-3.301-6.394-4.228v8.675c0,4.367-3.54,7.907-7.907,7.907h-2.384c-4.36,0-7.9-3.54-7.9-7.907v-8.431
	c-7.153,2.9-12.318,10.571-12.318,17.518c0,6.941,5.151,12.943,12.298,15.838v1.208c0,4.368,3.539,7.908,7.906,7.908h0.249
	c0.314,0.04,0.635,0.067,0.961,0.067s0.646-0.027,0.959-0.067h0.206c4.368,0,7.907-3.54,7.907-7.908v-0.935
	C191.513,145.24,196.571,139.08,196.571,131.913z"/>
<g>
	<g>
		<path fill="#36AD99" d="M78.449,109.841c0,0-0.074,2.268,0.187,6.237c0.183,1.968,0.308,4.421,0.044,7.26
			c-0.303,2.812-0.891,6.008-2.173,9.323c-0.626,1.66-1.391,3.363-2.344,5.052c-0.915,1.715-2.043,3.396-3.32,5.068
			c-2.582,3.306-5.912,6.512-10.098,8.951c-4.166,2.462-9.167,4.054-14.471,4.371c-5.239,0.329-10.84-0.548-15.947-2.735
			c-5.126-2.16-9.775-5.512-13.525-9.655c-3.735-4.134-6.63-9.027-8.282-14.193c-0.846-2.573-1.378-5.204-1.672-7.798
			c-0.068-0.648-0.146-1.296-0.178-1.939c-0.038-0.612-0.077-1.222-0.115-1.823c-0.055-1.002-0.108-1.989-0.162-2.965
			c-0.218-3.9-0.412-7.585-0.549-10.985c-0.257-6.806-0.449-12.478-0.558-16.447c-0.094-3.969-0.147-6.238-0.147-6.238
			c-0.142-6.021,4.623-11.019,10.646-11.162c6.021-0.142,11.018,4.624,11.162,10.646c0.003,0.159,0.002,0.358,0,0.515
			c0,0-0.054,2.269-0.148,6.238c-0.109,3.971-0.299,9.641-0.557,16.445c-0.138,3.403-0.332,7.088-0.55,10.987
			c-0.054,0.975-0.107,1.963-0.162,2.963c-0.02,0.396-0.041,0.793-0.06,1.192c-0.027,0.37-0.005,0.736-0.004,1.109
			c0.026,1.485,0.193,2.996,0.464,4.525c0.569,3.042,1.608,6.199,3.387,9.099c1.753,2.891,4.234,5.479,7.175,7.474
			c2.955,1.99,6.387,3.338,10.072,3.874c3.628,0.543,7.439,0.322,11.061-0.634c3.619-0.968,7.046-2.724,9.854-5.044
			c1.424-1.141,2.647-2.453,3.765-3.791c1.077-1.366,2.015-2.784,2.802-4.218c1.532-2.889,2.511-5.792,3.034-8.441
			c0.54-2.643,0.574-5.03,0.755-7.026c0.261-3.97,0.186-6.238,0.187-6.238c-0.004-0.117,0.089-0.218,0.208-0.222
			c0.12-0.005,0.22,0.089,0.223,0.208C78.449,109.831,78.449,109.835,78.449,109.841z"/>
	</g>
	<g>
		<path fill="#75BD9C" d="M24.931,115.911c0,0,0.073-2.269-0.187-6.237c-0.183-1.968-0.308-4.421-0.045-7.26
			c0.302-2.812,0.891-6.007,2.174-9.322c0.625-1.663,1.39-3.364,2.343-5.053c0.916-1.715,2.044-3.397,3.321-5.068
			c2.583-3.307,5.911-6.512,10.097-8.952c4.166-2.462,9.166-4.053,14.471-4.371c5.239-0.331,10.842,0.546,15.948,2.735
			c5.126,2.16,9.775,5.514,13.525,9.654c3.737,4.134,6.63,9.028,8.284,14.194c0.846,2.572,1.378,5.204,1.673,7.798
			c0.068,0.648,0.145,1.297,0.178,1.94c0.037,0.61,0.076,1.22,0.115,1.822c0.054,1.002,0.107,1.989,0.162,2.965
			c0.217,3.9,0.411,7.585,0.548,10.985c0.257,6.807,0.449,12.478,0.559,16.446c0.094,3.969,0.146,6.238,0.146,6.238
			c0.144,6.022-4.623,11.02-10.645,11.162c-6.022,0.143-11.019-4.623-11.162-10.645c-0.003-0.16-0.002-0.358,0-0.516
			c0,0,0.053-2.269,0.147-6.237c0.109-3.972,0.299-9.642,0.557-16.446c0.138-3.403,0.331-7.088,0.55-10.987
			c0.053-0.974,0.107-1.963,0.161-2.963c0.021-0.395,0.041-0.794,0.061-1.192c0.027-0.37,0.005-0.737,0.004-1.108
			c-0.026-1.486-0.192-2.997-0.464-4.525c-0.569-3.042-1.608-6.199-3.387-9.098c-1.756-2.894-4.234-5.479-7.175-7.475
			c-2.954-1.992-6.386-3.339-10.07-3.875c-3.628-0.545-7.438-0.324-11.06,0.633c-3.62,0.969-7.045,2.725-9.853,5.045
			c-1.424,1.14-2.648,2.452-3.764,3.791c-1.078,1.366-2.016,2.784-2.804,4.218c-1.531,2.889-2.51,5.793-3.034,8.442
			c-0.539,2.641-0.574,5.029-0.755,7.024c-0.261,3.97-0.186,6.237-0.187,6.237c0.004,0.12-0.089,0.22-0.208,0.224
			c-0.12,0.005-0.22-0.09-0.223-0.208C24.93,115.922,24.93,115.916,24.931,115.911z"/>
	</g>
</g>
<g id="XMLID_3_">
	<g>
		<path fill="#77C4A1" d="M60.926,117.152c0,5.074-4.113,9.188-9.187,9.188v-22.615C51.739,103.725,60.926,109.113,60.926,117.152z"
			/>
		<path fill="#32B6A0" d="M51.739,103.725v22.615c-5.074,0-9.187-4.113-9.187-9.188C42.552,109.113,51.739,103.725,51.739,103.725z"
			/>
	</g>
</g>
<rect x="1.47" y="-7.333" fill="none" width="199.196" height="191.333"/>
<g>
	<path fill="#898989" d="M15.62,53.044v-3.876h0.524v3.85c0,1.66,0.769,2.157,1.65,2.157c0.899,0,1.685-0.497,1.685-2.157v-3.85
		h0.497v3.876c0,2.009-1.039,2.603-2.183,2.603C16.649,55.647,15.62,55.053,15.62,53.044z"/>
	<path fill="#898989" d="M24.252,49.168h0.542l2.602,4.375l0.707,1.283h0.043c-0.034-0.629-0.069-1.267-0.069-1.887v-3.771h0.498
		v6.365h-0.542l-2.593-4.384l-0.715-1.274h-0.044c0.025,0.612,0.069,1.205,0.069,1.843v3.815h-0.497V49.168z"/>
	<path fill="#898989" d="M32.875,49.168h0.524v6.365h-0.524V49.168z"/>
	<path fill="#898989" d="M37.697,49.168h0.524v2.758h3.309v-2.758h0.515v6.365h-0.515v-3.152h-3.309v3.152h-0.524V49.168z"/>
	<path fill="#898989" d="M46.347,49.168h3.519v0.445h-2.994v2.323h2.523v0.445h-2.523v2.699h3.091v0.453h-3.616V49.168z"/>
	<path fill="#898989" d="M53.8,49.168h1.502c1.956,0,2.917,1.214,2.917,3.161s-0.961,3.204-2.908,3.204h-1.512L53.8,49.168
		L53.8,49.168z M55.249,55.087c1.676,0,2.419-1.108,2.419-2.759c0-1.651-0.742-2.725-2.419-2.725h-0.925v5.483H55.249z"/>
	<path fill="#898989" d="M62.93,52.976l-1.913-3.808h0.559l0.935,1.947c0.227,0.463,0.428,0.909,0.664,1.379h0.036
		c0.245-0.47,0.48-0.917,0.682-1.379l0.935-1.947h0.541l-1.912,3.808v2.558h-0.524L62.93,52.976L62.93,52.976z"/>
	<path fill="#898989" d="M72.742,52.329c0-2.017,1.099-3.275,2.636-3.275c1.554,0,2.646,1.258,2.646,3.275
		c0,2.025-1.092,3.318-2.646,3.318C73.841,55.647,72.742,54.354,72.742,52.329z M77.483,52.329c0-1.729-0.839-2.802-2.105-2.802
		c-1.257,0-2.086,1.074-2.086,2.802c0,1.728,0.829,2.846,2.086,2.846C76.644,55.175,77.483,54.057,77.483,52.329z"/>
	<path fill="#898989" d="M81.932,49.168h0.542l2.602,4.375l0.708,1.283h0.043c-0.035-0.629-0.069-1.267-0.069-1.887v-3.771h0.497
		v6.365h-0.541l-2.593-4.384l-0.716-1.274h-0.043c0.025,0.612,0.069,1.205,0.069,1.843v3.815h-0.498L81.932,49.168L81.932,49.168z"
		/>
	<path fill="#898989" d="M90.555,49.168h0.524v5.912h2.897v0.453h-3.422V49.168z"/>
	<path fill="#898989" d="M97.561,49.168h0.524v6.365h-0.524V49.168z"/>
	<path fill="#898989" d="M102.383,49.168h0.541l2.604,4.375l0.706,1.283h0.045c-0.035-0.629-0.069-1.267-0.069-1.887v-3.771h0.497
		v6.365h-0.541l-2.594-4.384l-0.716-1.274h-0.044c0.026,0.612,0.068,1.205,0.068,1.843v3.815h-0.497V49.168z"/>
	<path fill="#898989" d="M111.006,49.168h3.52v0.445h-2.995v2.323h2.523v0.445h-2.523v2.699h3.091v0.453h-3.615V49.168z"/>
	<path fill="#898989" d="M122.845,49.168h1.65c1.439,0,2.322,0.471,2.322,1.79c0,1.275-0.872,1.888-2.289,1.888h-1.159v2.688h-0.524
		V49.168z M124.425,52.406c1.256,0,1.86-0.426,1.86-1.449c0-1.029-0.628-1.354-1.895-1.354h-1.021v2.802H124.425z"/>
	<path fill="#898989" d="M130.235,52.329c0-2.017,1.101-3.275,2.637-3.275c1.554,0,2.646,1.258,2.646,3.275
		c0,2.025-1.092,3.318-2.646,3.318C131.336,55.647,130.235,54.354,130.235,52.329z M134.978,52.329c0-1.729-0.838-2.802-2.105-2.802
		c-1.258,0-2.086,1.074-2.086,2.802c0,1.728,0.828,2.846,2.086,2.846C134.14,55.175,134.978,54.057,134.978,52.329z"/>
	<path fill="#898989" d="M142.945,55.533l-1.695-2.873h-1.299v2.873h-0.524v-6.365h1.859c1.266,0,2.121,0.463,2.121,1.702
		c0,1.014-0.621,1.599-1.589,1.747l1.719,2.917L142.945,55.533L142.945,55.533z M139.951,52.225h1.214
		c1.098,0,1.711-0.438,1.711-1.354c0-0.924-0.613-1.266-1.711-1.266h-1.214V52.225z"/>
	<path fill="#898989" d="M148.424,49.613h-1.999v-0.445h4.541v0.445h-2.009v5.92h-0.533V49.613z"/>
	<path fill="#898989" d="M154.62,49.168h3.509v0.445h-2.985v2.454h2.522v0.446h-2.522v3.02h-0.523V49.168z"/>
	<path fill="#898989" d="M161.215,52.329c0-2.017,1.101-3.275,2.638-3.275c1.555,0,2.647,1.258,2.647,3.275
		c0,2.025-1.093,3.318-2.647,3.318C162.315,55.647,161.215,54.354,161.215,52.329z M165.956,52.329c0-1.729-0.838-2.802-2.104-2.802
		c-1.258,0-2.086,1.074-2.086,2.802c0,1.728,0.828,2.846,2.086,2.846C165.118,55.175,165.956,54.057,165.956,52.329z"/>
	<path fill="#898989" d="M170.406,49.168h0.523v5.912h2.899v0.453h-3.423V49.168L170.406,49.168z"/>
	<path fill="#898989" d="M177.412,49.168h0.524v6.365h-0.524V49.168z"/>
	<path fill="#898989" d="M181.834,52.329c0-2.017,1.1-3.275,2.637-3.275c1.555,0,2.646,1.258,2.646,3.275
		c0,2.025-1.092,3.318-2.646,3.318C182.934,55.647,181.834,54.354,181.834,52.329z M186.575,52.329c0-1.729-0.838-2.802-2.104-2.802
		c-1.257,0-2.087,1.074-2.087,2.802c0,1.728,0.83,2.846,2.087,2.846C185.737,55.175,186.575,54.057,186.575,52.329z"/>
</g>
</svg>
