<?xml version="1.0" encoding="utf-8"?>
<!-- Generator: Adobe Illustrator 16.0.0, SVG Export Plug-In . SVG Version: 6.00 Build 0)  -->
<!DOCTYPE svg PUBLIC "-//W3C//DTD SVG 1.1//EN" "http://www.w3.org/Graphics/SVG/1.1/DTD/svg11.dtd">
<svg version="1.1" id="圖層_1" xmlns="http://www.w3.org/2000/svg" xmlns:xlink="http://www.w3.org/1999/xlink" x="0px" y="0px"
	 width="167.619px" height="177px" viewBox="0 0 167.619 177" enable-background="new 0 0 167.619 177" xml:space="preserve">
<path fill="#77C4A1" d="M118.519,77.62h-2.004c-3.674,0-6.651,2.977-6.651,6.651v8.877h-5.388v-8.877
	c0-3.674-2.979-6.651-6.651-6.651H95.82c-3.675,0-6.652,2.977-6.652,6.651v22.584c0,3.672,2.979,6.651,6.652,6.651h2.004
	c3.674,0,6.651-2.979,6.651-6.651v-7.746h5.388v7.746c0,3.672,2.979,6.651,6.651,6.651h2.004c3.674,0,6.651-2.979,6.651-6.651
	V84.271C125.171,80.597,122.192,77.62,118.519,77.62z"/>
<path fill="#32B6A0" d="M143.58,99.109h17.658c1.743,0,3.155-1.334,3.155-2.98s-1.412-2.98-3.155-2.98H143.58v-8.877
	c0-0.234-0.013-0.465-0.037-0.692h17.695c1.743,0,3.155-1.333,3.155-2.98s-1.412-2.98-3.155-2.98h-24.312h-1.92h-0.082
	c-3.675,0-6.652,2.978-6.652,6.651v22.583c0,3.672,2.979,6.652,6.652,6.652h0.082h1.92h24.312c1.743,0,3.155-1.334,3.155-2.982
	c0-1.646-1.412-2.979-3.155-2.979h-17.695c0.024-0.229,0.037-0.459,0.037-0.693V99.109L143.58,99.109z"/>
<path fill="#32B6A0" d="M107.171,115.171c-0.669,0-1.33,0.04-1.979,0.11c-0.201-0.033-0.436-0.053-0.717-0.053h-8.654
	c-3.674,0-6.651,2.977-6.651,6.649v22.642c0,3.674,2.978,6.651,6.651,6.651h8.654c0.371,0,0.664-0.03,0.896-0.09
	c0.593,0.06,1.192,0.09,1.8,0.09c9.941,0,18-8.06,18-18S117.112,115.171,107.171,115.171z M114.668,134.014
	c0,3.678-2.979,6.65-6.649,6.65h-1.691c-0.645,0-1.264-0.092-1.848-0.266v-14.459c0.584-0.172,1.203-0.267,1.848-0.267h1.691
	c3.67,0,6.649,2.979,6.649,6.652V134.014z"/>
<path fill="#77C4A1" d="M164.175,130.117c0-0.404-0.022-0.809-0.061-1.221c-0.337-3.654-2.146-7.39-4.919-10.168
	c-1.529-1.537-3.353-2.777-5.38-3.559v7.301c0,3.676-2.979,6.653-6.653,6.653h-2.007c-3.669,0-6.646-2.979-6.646-6.653v-7.097
	c-6.021,2.442-10.365,8.896-10.365,14.742c0,5.841,4.334,10.891,10.348,13.327v1.017c0,3.677,2.979,6.654,6.654,6.654h0.209
	c0.266,0.032,0.533,0.057,0.809,0.057c0.273,0,0.543-0.022,0.807-0.057h0.174c3.677,0,6.654-2.979,6.654-6.654v-0.786
	C159.916,141.332,164.175,136.148,164.175,130.117z"/>
<g>
	<g>
		<path fill="#36AD99" d="M64.775,111.543c0,0-0.062,1.908,0.157,5.248c0.154,1.657,0.259,3.721,0.038,6.109
			c-0.255,2.367-0.75,5.057-1.83,7.846c-0.526,1.396-1.17,2.83-1.972,4.251c-0.77,1.442-1.719,2.858-2.794,4.267
			c-2.172,2.779-4.975,5.479-8.497,7.531c-3.505,2.07-7.713,3.41-12.177,3.678c-4.409,0.277-9.122-0.461-13.419-2.301
			c-4.314-1.818-8.226-4.64-11.382-8.125c-3.143-3.479-5.579-7.597-6.969-11.943c-0.712-2.166-1.16-4.379-1.407-6.563
			c-0.058-0.545-0.123-1.09-0.149-1.632c-0.033-0.515-0.065-1.027-0.098-1.534c-0.046-0.844-0.091-1.674-0.136-2.494
			c-0.184-3.283-0.346-6.383-0.462-9.244c-0.216-5.729-0.377-10.5-0.469-13.84c-0.079-3.34-0.124-5.249-0.124-5.249
			c-0.12-5.067,3.891-9.272,8.958-9.393c5.067-0.12,9.271,3.891,9.392,8.958c0.003,0.134,0.002,0.301,0,0.434
			c0,0-0.045,1.909-0.124,5.249c-0.092,3.341-0.252,8.112-0.469,13.839c-0.116,2.863-0.279,5.963-0.462,9.244
			c-0.045,0.82-0.09,1.652-0.136,2.494c-0.017,0.332-0.034,0.667-0.05,1.004c-0.023,0.311-0.004,0.618-0.003,0.932
			c0.022,1.252,0.162,2.521,0.391,3.81c0.479,2.56,1.354,5.217,2.85,7.655c1.476,2.433,3.563,4.609,6.037,6.289
			c2.486,1.676,5.375,2.81,8.476,3.261c3.053,0.457,6.259,0.271,9.308-0.533c3.045-0.813,5.929-2.292,8.291-4.244
			c1.199-0.959,2.228-2.063,3.168-3.19c0.906-1.148,1.695-2.342,2.358-3.549c1.289-2.431,2.113-4.873,2.553-7.104
			c0.454-2.225,0.482-4.232,0.635-5.912c0.22-3.34,0.157-5.249,0.158-5.249c-0.003-0.101,0.075-0.185,0.175-0.188
			c0.101-0.004,0.185,0.076,0.188,0.176C64.775,111.535,64.775,111.539,64.775,111.543z"/>
	</g>
	<g>
		<path fill="#75BD9C" d="M19.741,116.652c0,0,0.062-1.91-0.157-5.25c-0.154-1.655-0.259-3.719-0.038-6.107
			c0.254-2.365,0.75-5.056,1.83-7.846c0.526-1.398,1.17-2.83,1.972-4.251c0.77-1.443,1.72-2.859,2.794-4.265
			c2.173-2.782,4.974-5.48,8.497-7.532c3.505-2.072,7.713-3.411,12.177-3.678c4.409-0.278,9.124,0.459,13.42,2.301
			c4.314,1.817,8.226,4.64,11.381,8.124c3.146,3.479,5.58,7.597,6.972,11.943c0.711,2.166,1.159,4.382,1.407,6.563
			c0.058,0.546,0.122,1.091,0.149,1.633c0.031,0.514,0.063,1.025,0.097,1.533c0.046,0.844,0.091,1.674,0.136,2.494
			c0.184,3.283,0.348,6.383,0.463,9.244c0.217,5.729,0.377,10.5,0.469,13.84c0.08,3.34,0.125,5.25,0.125,5.25
			c0.119,5.065-3.892,9.271-8.959,9.393c-5.066,0.119-9.271-3.891-9.393-8.958c-0.002-0.135-0.001-0.302,0-0.435
			c0,0,0.045-1.908,0.124-5.248c0.092-3.342,0.252-8.113,0.469-13.84c0.117-2.863,0.279-5.963,0.463-9.244
			c0.045-0.82,0.09-1.652,0.136-2.494c0.017-0.332,0.034-0.668,0.051-1.004c0.023-0.312,0.004-0.619,0.003-0.932
			c-0.022-1.252-0.162-2.521-0.391-3.81c-0.479-2.56-1.354-5.218-2.851-7.655c-1.478-2.436-3.563-4.611-6.037-6.29
			c-2.485-1.676-5.374-2.81-8.474-3.261c-3.053-0.458-6.259-0.272-9.307,0.532c-3.045,0.816-5.928,2.292-8.291,4.246
			c-1.199,0.959-2.229,2.064-3.168,3.19c-0.906,1.149-1.696,2.343-2.359,3.55c-1.289,2.43-2.113,4.873-2.553,7.104
			c-0.454,2.223-0.482,4.232-0.636,5.91c-0.22,3.341-0.156,5.25-0.157,5.25c0.003,0.101-0.075,0.185-0.176,0.188
			c-0.101,0.005-0.185-0.075-0.187-0.175C19.74,116.66,19.74,116.654,19.741,116.652z"/>
	</g>
</g>
<g id="XMLID_3_">
	<g>
		<path fill="#77C4A1" d="M50.031,117.695c0,4.271-3.46,7.73-7.73,7.73v-19.029C42.3,106.396,50.031,110.932,50.031,117.695z"/>
		<path fill="#32B6A0" d="M42.3,106.396v19.029c-4.27,0-7.73-3.461-7.73-7.73C34.57,110.932,42.3,106.396,42.3,106.396z"/>
	</g>
</g>
<rect x="-0.001" y="12.944" fill="none" width="167.62" height="161.003"/>
<g>
	<path fill="#898989" d="M11.907,63.75v-3.262h0.441v3.24c0,1.397,0.647,1.815,1.389,1.815c0.757,0,1.418-0.418,1.418-1.815v-3.24
		h0.418v3.262c0,1.69-0.875,2.19-1.837,2.19C12.772,65.941,11.907,65.44,11.907,63.75z"/>
	<path fill="#898989" d="M19.171,60.489h0.455l2.19,3.682l0.595,1.08h0.037c-0.028-0.53-0.059-1.066-0.059-1.588V60.49h0.419v5.356
		h-0.456l-2.183-3.689l-0.602-1.072H19.53c0.021,0.515,0.059,1.014,0.059,1.551v3.21h-0.418V60.489z"/>
	<path fill="#898989" d="M26.427,60.489h0.44v5.355h-0.44V60.489z"/>
	<path fill="#898989" d="M30.484,60.489h0.441v2.321h2.784v-2.321h0.433v5.355h-0.433v-2.652h-2.784v2.652h-0.441V60.489z"/>
	<path fill="#898989" d="M37.763,60.489h2.961v0.375h-2.52v1.955h2.123v0.375h-2.123v2.271h2.601v0.382h-3.042V60.489z"/>
	<path fill="#898989" d="M44.034,60.489h1.263c1.646,0,2.455,1.021,2.455,2.66c0,1.638-0.808,2.696-2.447,2.696h-1.272
		L44.034,60.489L44.034,60.489z M45.253,65.47c1.411,0,2.036-0.933,2.036-2.322s-0.625-2.292-2.036-2.292h-0.778v4.614H45.253z"/>
	<path fill="#898989" d="M51.717,63.693l-1.609-3.204h0.47l0.787,1.638c0.191,0.39,0.36,0.765,0.559,1.161h0.03
		c0.206-0.396,0.404-0.771,0.574-1.161l0.787-1.638h0.455l-1.609,3.204v2.152h-0.44L51.717,63.693L51.717,63.693z"/>
	<path fill="#898989" d="M59.973,63.148c0-1.698,0.925-2.756,2.218-2.756c1.308,0,2.227,1.058,2.227,2.756
		c0,1.704-0.918,2.792-2.227,2.792C60.898,65.941,59.973,64.853,59.973,63.148z M63.963,63.148c0-1.455-0.706-2.358-1.771-2.358
		c-1.058,0-1.755,0.903-1.755,2.358c0,1.454,0.697,2.395,1.755,2.395C63.257,65.543,63.963,64.603,63.963,63.148z"/>
	<path fill="#898989" d="M67.706,60.489h0.456l2.188,3.682l0.597,1.08h0.037c-0.029-0.53-0.058-1.066-0.058-1.588V60.49h0.418v5.356
		H70.89l-2.183-3.689l-0.603-1.072h-0.036c0.021,0.515,0.059,1.014,0.059,1.551v3.21h-0.419L67.706,60.489L67.706,60.489z"/>
	<path fill="#898989" d="M74.962,60.489h0.441v4.974h2.439v0.382h-2.881V60.489z"/>
	<path fill="#898989" d="M80.858,60.489H81.3v5.355h-0.441V60.489z"/>
	<path fill="#898989" d="M84.916,60.489h0.455l2.19,3.682l0.595,1.08h0.037c-0.029-0.53-0.06-1.066-0.06-1.588V60.49h0.418v5.356
		h-0.455l-2.182-3.689l-0.604-1.072h-0.036c0.022,0.515,0.058,1.014,0.058,1.551v3.21h-0.418L84.916,60.489L84.916,60.489z"/>
	<path fill="#898989" d="M92.173,60.489h2.961v0.375h-2.521v1.955h2.123v0.375h-2.123v2.271h2.603v0.382h-3.043V60.489z"/>
	<path fill="#898989" d="M102.134,60.489h1.389c1.213,0,1.955,0.396,1.955,1.506c0,1.073-0.734,1.588-1.926,1.588h-0.977v2.262
		h-0.441V60.489z M103.464,63.214c1.059,0,1.565-0.359,1.565-1.219c0-0.866-0.529-1.139-1.595-1.139h-0.859v2.358H103.464z"/>
	<path fill="#898989" d="M108.353,63.148c0-1.698,0.927-2.756,2.219-2.756c1.308,0,2.229,1.058,2.229,2.756
		c0,1.704-0.921,2.792-2.229,2.792C109.279,65.941,108.353,64.853,108.353,63.148z M112.345,63.148c0-1.455-0.705-2.358-1.772-2.358
		c-1.058,0-1.755,0.903-1.755,2.358c0,1.454,0.697,2.395,1.755,2.395C111.64,65.543,112.345,64.603,112.345,63.148z"/>
	<path fill="#898989" d="M119.05,65.845l-1.428-2.417h-1.094v2.417h-0.44v-5.355h1.564c1.063,0,1.784,0.39,1.784,1.433
		c0,0.853-0.522,1.345-1.338,1.47l1.447,2.454L119.05,65.845L119.05,65.845z M116.528,63.061h1.021c0.924,0,1.438-0.368,1.438-1.14
		c0-0.778-0.515-1.065-1.438-1.065h-1.021V63.061z"/>
	<path fill="#898989" d="M123.658,60.863h-1.683v-0.375h3.82v0.375h-1.689v4.981h-0.448V60.863z"/>
	<path fill="#898989" d="M128.872,60.489h2.953v0.375h-2.514v2.063h2.123v0.375h-2.123v2.542h-0.439V60.489z"/>
	<path fill="#898989" d="M134.423,63.148c0-1.698,0.926-2.756,2.219-2.756c1.309,0,2.229,1.058,2.229,2.756
		c0,1.704-0.92,2.792-2.229,2.792C135.349,65.941,134.423,64.853,134.423,63.148z M138.412,63.148c0-1.455-0.705-2.358-1.771-2.358
		c-1.06,0-1.758,0.903-1.758,2.358c0,1.454,0.698,2.395,1.758,2.395C137.707,65.543,138.412,64.603,138.412,63.148z"/>
	<path fill="#898989" d="M142.156,60.489h0.44v4.974h2.438v0.382h-2.879L142.156,60.489L142.156,60.489z"/>
	<path fill="#898989" d="M148.052,60.489h0.44v5.355h-0.44V60.489z"/>
	<path fill="#898989" d="M151.772,63.148c0-1.698,0.925-2.756,2.219-2.756c1.309,0,2.227,1.058,2.227,2.756
		c0,1.704-0.918,2.792-2.227,2.792C152.697,65.941,151.772,64.853,151.772,63.148z M155.763,63.148c0-1.455-0.705-2.358-1.771-2.358
		c-1.059,0-1.757,0.903-1.757,2.358c0,1.454,0.698,2.395,1.757,2.395C155.058,65.543,155.763,64.603,155.763,63.148z"/>
</g>
</svg>
