<?xml version="1.0" encoding="utf-8"?>
<!-- Generator: Adobe Illustrator 16.0.0, SVG Export Plug-In . SVG Version: 6.00 Build 0)  -->
<!DOCTYPE svg PUBLIC "-//W3C//DTD SVG 1.1//EN" "http://www.w3.org/Graphics/SVG/1.1/DTD/svg11.dtd">
<svg version="1.1" id="圖層_1" xmlns="http://www.w3.org/2000/svg" xmlns:xlink="http://www.w3.org/1999/xlink" x="0px" y="0px"
	 width="228px" height="219px" viewBox="0 0 228 219" enable-background="new 0 0 228 219" xml:space="preserve">
<path fill="#77C4A1" d="M161.213,87.973h-2.726c-4.996,0-9.047,4.05-9.047,9.047v12.076h-7.329V97.02
	c0-4.997-4.051-9.047-9.047-9.047h-2.726c-4.998,0-9.047,4.05-9.047,9.047v30.719c0,4.996,4.05,9.048,9.047,9.048h2.726
	c4.996,0,9.047-4.052,9.047-9.048v-10.536h7.329v10.536c0,4.996,4.051,9.048,9.047,9.048h2.726c4.996,0,9.047-4.052,9.047-9.048
	V97.02C170.261,92.023,166.209,87.973,161.213,87.973z"/>
<path fill="#32B6A0" d="M195.301,117.203h24.021c2.369,0,4.29-1.814,4.29-4.053c0-2.239-1.921-4.054-4.29-4.054h-24.021V97.02
	c0-0.317-0.018-0.631-0.049-0.94h24.07c2.369,0,4.29-1.814,4.29-4.053c0-2.239-1.921-4.054-4.29-4.054h-33.068h-2.613h-0.111
	c-4.997,0-9.047,4.05-9.047,9.047v30.719c0,4.996,4.05,9.048,9.047,9.048h0.111h2.613h33.068c2.369,0,4.29-1.815,4.29-4.054
	c0-2.239-1.921-4.054-4.29-4.054h-24.07c0.031-0.31,0.049-0.623,0.049-0.94V117.203z"/>
<path fill="#32B6A0" d="M145.777,139.05c-0.911,0-1.808,0.055-2.692,0.15c-0.272-0.046-0.59-0.072-0.973-0.072h-11.772
	c-4.998,0-9.047,4.051-9.047,9.047v30.798c0,4.996,4.05,9.047,9.047,9.047h11.772c0.504,0,0.901-0.043,1.217-0.122
	c0.805,0.08,1.622,0.122,2.448,0.122c13.522,0,24.484-10.963,24.484-24.484C170.261,150.013,159.299,139.05,145.777,139.05z
	 M155.974,164.681c0,5.004-4.053,9.047-9.047,9.047h-2.298c-0.877,0-1.719-0.126-2.514-0.361v-19.668
	c0.795-0.235,1.637-0.361,2.514-0.361h2.298c4.994,0,9.047,4.053,9.047,9.047V164.681z"/>
<path fill="#77C4A1" d="M223.313,159.38c0-0.55-0.029-1.1-0.08-1.66c-0.459-4.97-2.92-10.05-6.689-13.83
	c-2.08-2.09-4.561-3.779-7.32-4.84v9.93c0,5-4.05,9.051-9.05,9.051h-2.729c-4.99,0-9.041-4.051-9.041-9.051v-9.649
	c-8.189,3.32-14.1,12.1-14.1,20.05c0,7.945,5.896,14.815,14.075,18.129v1.382c0,5,4.05,9.051,9.05,9.051h0.285
	c0.361,0.046,0.727,0.078,1.1,0.078s0.738-0.032,1.099-0.078h0.237c5,0,9.05-4.051,9.05-9.051v-1.068
	C217.523,174.635,223.313,167.583,223.313,159.38z"/>
<g>
	<g>
		<path fill="#36AD99" d="M88.109,134.116c0,0-0.002,0.162-0.006,0.477c-0.005,0.314-0.013,0.781,0.01,1.39
			c0.027,1.217,0.061,3.002,0.21,5.273c0.209,2.254,0.353,5.061,0.051,8.311c-0.347,3.218-1.02,6.876-2.489,10.671
			c-0.717,1.9-1.591,3.849-2.682,5.781c-1.046,1.963-2.339,3.888-3.801,5.802c-2.956,3.783-6.766,7.452-11.558,10.245
			c-4.768,2.815-10.491,4.645-16.563,4.998c-5.997,0.358-12.393-0.661-18.248-3.135c-5.878-2.452-11.191-6.304-15.487-11.042
			c-4.276-4.73-7.589-10.333-9.48-16.244c-0.968-2.946-1.578-5.957-1.915-8.927c-0.079-0.743-0.167-1.483-0.203-2.22
			c-0.044-0.7-0.088-1.396-0.132-2.089c-0.063-1.145-0.124-2.275-0.185-3.391c-0.223-4.463-0.434-8.682-0.628-12.576
			c-0.263-7.789-0.482-14.28-0.636-18.824c-0.108-4.543-0.17-7.14-0.17-7.14c-0.165-6.893,5.289-12.613,12.182-12.778
			c6.892-0.165,12.613,5.29,12.777,12.182c0.004,0.185,0.004,0.413,0,0.596c0,0-0.062,2.597-0.17,7.14
			c-0.153,4.544-0.373,11.035-0.636,18.824c-0.194,3.895-0.405,8.113-0.628,12.576c-0.061,1.115-0.123,2.246-0.185,3.391
			c-0.023,0.453-0.045,0.908-0.068,1.366c-0.033,0.422-0.007,0.843-0.005,1.269c0.03,1.7,0.22,3.429,0.53,5.18
			c0.651,3.481,1.841,7.096,3.877,10.414c2.005,3.313,4.852,6.261,8.207,8.564c3.37,2.311,7.316,3.835,11.533,4.43
			c4.153,0.613,8.514,0.367,12.66-0.729c4.142-1.108,8.064-3.117,11.277-5.772c1.63-1.307,3.031-2.809,4.309-4.34
			c1.233-1.564,2.306-3.188,3.208-4.829c1.753-3.307,2.874-6.63,3.473-9.661c0.618-3.023,0.656-5.758,0.864-8.042
			c0.149-2.271,0.183-4.057,0.21-5.273c0.023-0.608,0.015-1.075,0.01-1.39c-0.004-0.314-0.006-0.477-0.006-0.477
			c-0.001-0.137,0.107-0.248,0.244-0.25c0.136-0.002,0.249,0.107,0.25,0.244C88.109,134.112,88.109,134.114,88.109,134.116z"/>
	</g>
	<g>
		<path fill="#75BD9C" d="M26.852,141.067c0,0,0.002-0.162,0.006-0.477c0.005-0.314,0.013-0.781-0.01-1.39
			c-0.027-1.217-0.061-3.002-0.21-5.273c-0.209-2.254-0.353-5.062-0.051-8.311c0.347-3.218,1.02-6.876,2.488-10.671
			c0.717-1.9,1.591-3.849,2.682-5.781c1.047-1.964,2.339-3.889,3.801-5.802c2.956-3.783,6.767-7.453,11.558-10.246
			c4.769-2.815,10.491-4.645,16.563-4.998c5.997-0.359,12.393,0.661,18.249,3.134c5.878,2.452,11.192,6.308,15.486,11.043
			c4.277,4.73,7.589,10.332,9.481,16.244c0.968,2.946,1.578,5.957,1.915,8.927c0.079,0.742,0.167,1.483,0.203,2.22
			c0.044,0.7,0.088,1.396,0.132,2.089c0.063,1.145,0.124,2.275,0.185,3.391c0.223,4.463,0.434,8.682,0.628,12.576
			c0.263,7.789,0.482,14.28,0.636,18.824c0.108,4.543,0.17,7.14,0.17,7.14c0.165,6.893-5.289,12.613-12.182,12.777
			c-6.892,0.165-12.613-5.289-12.777-12.182c-0.004-0.184-0.004-0.413,0-0.596c0,0,0.062-2.597,0.17-7.14
			c0.153-4.544,0.373-11.035,0.636-18.824c0.194-3.895,0.405-8.113,0.628-12.576c0.061-1.115,0.123-2.246,0.185-3.391
			c0.023-0.453,0.045-0.908,0.068-1.366c0.033-0.423,0.007-0.843,0.005-1.269c-0.03-1.7-0.22-3.429-0.53-5.18
			c-0.651-3.482-1.842-7.096-3.877-10.414c-2.007-3.314-4.851-6.261-8.207-8.564c-3.37-2.311-7.315-3.836-11.532-4.43
			c-4.152-0.613-8.514-0.367-12.66,0.729c-4.143,1.108-8.064,3.117-11.277,5.772c-1.63,1.306-3.031,2.808-4.309,4.34
			c-1.233,1.564-2.306,3.188-3.208,4.829c-1.753,3.307-2.874,6.629-3.473,9.661c-0.618,3.023-0.656,5.758-0.864,8.042
			c-0.149,2.271-0.183,4.057-0.21,5.273c-0.023,0.608-0.015,1.075-0.01,1.39c0.004,0.314,0.006,0.477,0.006,0.477
			c0.001,0.137-0.107,0.248-0.244,0.25c-0.136,0.002-0.249-0.107-0.25-0.244C26.852,141.071,26.852,141.069,26.852,141.067z"/>
	</g>
</g>
<g id="XMLID_3_">
	<g>
		<path fill="#77C4A1" d="M68.053,142.488c0,5.808-4.708,10.511-10.515,10.511v-25.88C57.538,127.12,68.053,133.287,68.053,142.488z
			"/>
		<path fill="#32B6A0" d="M57.538,127.12V153c-5.808,0-10.516-4.704-10.516-10.511C47.022,133.287,57.538,127.12,57.538,127.12z"/>
	</g>
	<g>
	</g>
</g>
<rect y="0" fill="none" width="228" height="219"/>
<g>
	<path fill="#898989" d="M16.196,69.108V64.67h0.6v4.407c0,1.899,0.88,2.469,1.889,2.469c1.029,0,1.929-0.569,1.929-2.469V64.67
		h0.57v4.438c0,2.299-1.189,2.979-2.499,2.979S16.196,71.407,16.196,69.108z"/>
	<path fill="#898989" d="M26.076,64.67h0.62l2.978,5.008l0.81,1.469h0.05c-0.04-0.72-0.08-1.449-0.08-2.159V64.67h0.57v7.286h-0.62
		l-2.969-5.018l-0.819-1.459h-0.05c0.03,0.7,0.08,1.379,0.08,2.109v4.367h-0.569V64.67z"/>
	<path fill="#898989" d="M35.946,64.67h0.6v7.286h-0.6V64.67z"/>
	<path fill="#898989" d="M41.466,64.67h0.6v3.158h3.788V64.67h0.59v7.286h-0.59v-3.608h-3.788v3.608h-0.6V64.67z"/>
	<path fill="#898989" d="M51.366,64.67h4.028v0.51h-3.428v2.658h2.888v0.51h-2.888v3.089h3.538v0.52h-4.138V64.67z"/>
	<path fill="#898989" d="M59.896,64.67h1.719c2.239,0,3.338,1.39,3.338,3.618s-1.1,3.668-3.328,3.668h-1.729V64.67z M61.555,71.447
		c1.919,0,2.769-1.27,2.769-3.158s-0.85-3.118-2.769-3.118h-1.059v6.276H61.555z"/>
	<path fill="#898989" d="M70.346,69.028l-2.189-4.357h0.64l1.069,2.229c0.26,0.53,0.49,1.04,0.76,1.579h0.04
		c0.28-0.539,0.549-1.049,0.779-1.579l1.069-2.229h0.62l-2.188,4.357v2.929h-0.6V69.028z"/>
	<path fill="#898989" d="M81.576,68.289c0-2.309,1.259-3.748,3.019-3.748c1.779,0,3.028,1.439,3.028,3.748
		c0,2.318-1.25,3.798-3.028,3.798C82.835,72.086,81.576,70.607,81.576,68.289z M87.003,68.289c0-1.979-0.959-3.208-2.409-3.208
		c-1.439,0-2.389,1.229-2.389,3.208s0.949,3.258,2.389,3.258C86.044,71.546,87.003,70.267,87.003,68.289z"/>
	<path fill="#898989" d="M92.096,64.67h0.62l2.978,5.008l0.81,1.469h0.05c-0.04-0.72-0.08-1.449-0.08-2.159V64.67h0.57v7.286h-0.62
		l-2.969-5.018l-0.819-1.459h-0.05c0.03,0.7,0.08,1.379,0.08,2.109v4.367h-0.569V64.67z"/>
	<path fill="#898989" d="M101.966,64.67h0.6v6.767h3.318v0.52h-3.917V64.67z"/>
	<path fill="#898989" d="M109.985,64.67h0.6v7.286h-0.6V64.67z"/>
	<path fill="#898989" d="M115.505,64.67h0.62l2.978,5.008l0.81,1.469h0.05c-0.04-0.72-0.08-1.449-0.08-2.159V64.67h0.57v7.286h-0.62
		l-2.969-5.018l-0.819-1.459h-0.05c0.03,0.7,0.08,1.379,0.08,2.109v4.367h-0.569V64.67z"/>
	<path fill="#898989" d="M125.375,64.67h4.028v0.51h-3.428v2.658h2.888v0.51h-2.888v3.089h3.538v0.52h-4.138V64.67z"/>
	<path fill="#898989" d="M138.925,64.67h1.889c1.649,0,2.659,0.54,2.659,2.049c0,1.459-1,2.159-2.619,2.159h-1.329v3.078h-0.6V64.67
		z M140.734,68.378c1.439,0,2.128-0.489,2.128-1.659c0-1.179-0.719-1.549-2.168-1.549h-1.169v3.208H140.734z"/>
	<path fill="#898989" d="M147.385,68.289c0-2.309,1.259-3.748,3.019-3.748c1.779,0,3.028,1.439,3.028,3.748
		c0,2.318-1.25,3.798-3.028,3.798C148.644,72.086,147.385,70.607,147.385,68.289z M152.812,68.289c0-1.979-0.959-3.208-2.409-3.208
		c-1.439,0-2.389,1.229-2.389,3.208s0.949,3.258,2.389,3.258C151.853,71.546,152.812,70.267,152.812,68.289z"/>
	<path fill="#898989" d="M161.933,71.957l-1.939-3.288h-1.489v3.288h-0.6V64.67h2.129c1.449,0,2.428,0.53,2.428,1.949
		c0,1.159-0.709,1.829-1.819,1.999l1.969,3.338H161.933z M158.504,68.168h1.389c1.259,0,1.959-0.5,1.959-1.549
		c0-1.06-0.7-1.449-1.959-1.449h-1.389V68.168z"/>
	<path fill="#898989" d="M168.204,65.18h-2.289v-0.51h5.197v0.51h-2.299v6.776h-0.61V65.18z"/>
	<path fill="#898989" d="M175.295,64.67h4.018v0.51h-3.418v2.809h2.888v0.51h-2.888v3.458h-0.6V64.67z"/>
	<path fill="#898989" d="M182.845,68.289c0-2.309,1.259-3.748,3.019-3.748c1.779,0,3.028,1.439,3.028,3.748
		c0,2.318-1.249,3.798-3.028,3.798C184.104,72.086,182.845,70.607,182.845,68.289z M188.272,68.289c0-1.979-0.96-3.208-2.409-3.208
		c-1.439,0-2.389,1.229-2.389,3.208s0.949,3.258,2.389,3.258C187.313,71.546,188.272,70.267,188.272,68.289z"/>
	<path fill="#898989" d="M193.364,64.67h0.6v6.767h3.318v0.52h-3.918V64.67z"/>
	<path fill="#898989" d="M201.385,64.67h0.6v7.286h-0.6V64.67z"/>
	<path fill="#898989" d="M206.444,68.289c0-2.309,1.259-3.748,3.019-3.748c1.778,0,3.028,1.439,3.028,3.748
		c0,2.318-1.25,3.798-3.028,3.798C207.703,72.086,206.444,70.607,206.444,68.289z M211.871,68.289c0-1.979-0.959-3.208-2.408-3.208
		c-1.439,0-2.389,1.229-2.389,3.208s0.949,3.258,2.389,3.258C210.912,71.546,211.871,70.267,211.871,68.289z"/>
</g>
</svg>
